<svg width="40" height="40" viewBox="0 0 40 40" fill="none" xmlns="http://www.w3.org/2000/svg">
<path d="M3.33325 11.3333C3.33325 9.74195 3.96539 8.21583 5.09061 7.09061C6.21583 5.96539 7.74195 5.33325 9.33325 5.33325H27.3333C28.9246 5.33325 30.4507 5.96539 31.5759 7.09061C32.7011 8.21583 33.3333 9.74195 33.3333 11.3333V29.3333C33.3333 30.9246 32.7011 32.4507 31.5759 33.5759C30.4507 34.7011 28.9246 35.3333 27.3333 35.3333H9.33325C7.74195 35.3333 6.21583 34.7011 5.09061 33.5759C3.96539 32.4507 3.33325 30.9246 3.33325 29.3333V11.3333Z" stroke="#494949" stroke-width="3.33333" stroke-linecap="round" stroke-linejoin="round"/>
<path d="M13.0835 18.8335C15.1546 18.8335 16.8335 17.1546 16.8335 15.0835C16.8335 13.0124 15.1546 11.3335 13.0835 11.3335C11.0124 11.3335 9.3335 13.0124 9.3335 15.0835C9.3335 17.1546 11.0124 18.8335 13.0835 18.8335Z" stroke="#494949" stroke-width="3.33333" stroke-linecap="round" stroke-linejoin="round"/>
<path d="M22.1225 21.2647L9.3335 35.3332H27.533C29.0714 35.3332 30.5468 34.7221 31.6346 33.6343C32.7224 32.5465 33.3335 31.0711 33.3335 29.5327V29.3332C33.3335 28.6342 33.071 28.3657 32.5985 27.8482L26.5535 21.2557C26.2718 20.9484 25.9291 20.7032 25.5473 20.5357C25.1655 20.3682 24.7529 20.2821 24.336 20.283C23.9191 20.2838 23.5069 20.3716 23.1258 20.5406C22.7447 20.7096 22.403 20.9562 22.1225 21.2647V21.2647Z" stroke="#494949" stroke-width="3.33333" stroke-linecap="round" stroke-linejoin="round"/>
</svg>
