<svg width="36" height="34" viewBox="0 0 36 34" fill="none" xmlns="http://www.w3.org/2000/svg">
<path d="M13.5 18.4166H22.5M13.5 24.0833H18M6 5.66659V28.3333C6 29.0847 6.31607 29.8054 6.87868 30.3367C7.44129 30.8681 8.20435 31.1666 9 31.1666H27C27.7956 31.1666 28.5587 30.8681 29.1213 30.3367C29.6839 29.8054 30 29.0847 30 28.3333V11.8178C30 11.4403 29.92 11.0667 29.765 10.7188C29.6099 10.3709 29.3828 10.0558 29.097 9.79192L22.437 3.64075C21.8765 3.12318 21.1239 2.83334 20.34 2.83325H9C8.20435 2.83325 7.44129 3.13176 6.87868 3.66312C6.31607 4.19447 6 4.91514 6 5.66659V5.66659Z" stroke="#494949" stroke-width="2.5" stroke-linecap="round" stroke-linejoin="round"/>
<path d="M21 2.83325V8.49992C21 9.25137 21.3161 9.97203 21.8787 10.5034C22.4413 11.0347 23.2044 11.3333 24 11.3333H30" stroke="#494949" stroke-width="2.5" stroke-linejoin="round"/>
</svg>
