<svg width="24" height="15" viewBox="0 0 24 15" fill="none" xmlns="http://www.w3.org/2000/svg">
<path fill-rule="evenodd" clip-rule="evenodd" d="M24 7.5C24 7.72098 23.9097 7.93292 23.749 8.08917C23.5882 8.24543 23.3702 8.33322 23.1429 8.33322L2.92763 8.33322L8.32214 13.5758C8.48308 13.7323 8.5735 13.9445 8.5735 14.1657C8.5735 14.387 8.48308 14.5992 8.32214 14.7556C8.1612 14.9121 7.94293 15 7.71532 15C7.48772 15 7.26944 14.9121 7.10851 14.7556L0.2518 8.08992C0.171983 8.01252 0.108657 7.92057 0.0654484 7.81934C0.0222413 7.71812 -3.32626e-07 7.6096 -3.27835e-07 7.5C-3.23045e-07 7.3904 0.0222413 7.28188 0.0654484 7.18066C0.108658 7.07943 0.171983 6.98748 0.2518 6.91008L7.10851 0.244351C7.26945 0.087895 7.48772 -7.26988e-07 7.71532 -7.11826e-07C7.94293 -6.96664e-07 8.16121 0.0878951 8.32214 0.244351C8.48308 0.400807 8.5735 0.613006 8.5735 0.834268C8.5735 1.05553 8.48308 1.26773 8.32214 1.42419L2.92763 6.66678L23.1429 6.66678C23.3702 6.66678 23.5882 6.75457 23.749 6.91083C23.9097 7.06709 24 7.27902 24 7.5Z" fill="#636363"/>
</svg>
