<svg width="43" height="43" viewBox="0 0 43 43" fill="none" xmlns="http://www.w3.org/2000/svg">
<path d="M25.5312 9.5625H25.5314C26.4713 9.56239 27.3792 9.90387 28.086 10.5234C28.7928 11.1428 29.2504 11.9981 29.3735 12.9299L29.6363 14.9188L31.4697 14.1041L39.8278 10.39L39.8292 10.3894C40.01 10.3088 40.208 10.2748 40.4053 10.2902C40.6026 10.3057 40.7929 10.3702 40.9589 10.4779C41.1249 10.5857 41.2614 10.7332 41.3559 10.9071C41.4504 11.0809 41.4999 11.2757 41.5 11.4736V31.5258C41.4998 31.7235 41.4503 31.9181 41.3558 32.0918C41.2614 32.2656 41.1251 32.413 40.9592 32.5207C40.7934 32.6284 40.6033 32.6929 40.4061 32.7085C40.209 32.7241 40.0111 32.6902 39.8304 32.6099L39.8303 32.6099L31.4695 28.8958L29.6363 28.0814L29.3735 30.0701C29.2504 31.0019 28.7928 31.8572 28.086 32.4766C27.3792 33.0961 26.4713 33.4376 25.5314 33.4375H25.5312H5.375C4.34729 33.4375 3.36167 33.0292 2.63496 32.3025L1.59595 33.3416L2.63496 32.3025C1.90826 31.5758 1.5 30.5902 1.5 29.5625V13.4375C1.5 12.4098 1.90826 11.4242 2.63496 10.6975C3.36166 9.97076 4.34729 9.5625 5.375 9.5625H25.5312Z" stroke="#494949" stroke-width="3"/>
</svg>
