<svg width="96" height="69" viewBox="0 0 96 69" fill="none" xmlns="http://www.w3.org/2000/svg">
<path d="M91.2 44.125H81.6V53.75H84.96C85.755 53.75 86.4 54.2914 86.4 54.9531V57.3594C86.4 58.0211 85.755 58.5625 84.96 58.5625H11.04C10.245 58.5625 9.6 58.0211 9.6 57.3594V54.9531C9.6 54.2914 10.245 53.75 11.04 53.75H14.4V44.125H4.8C2.145 44.125 0 46.2756 0 48.9375V63.375C0 66.0369 2.145 68.1875 4.8 68.1875H91.2C93.855 68.1875 96 66.0369 96 63.375V48.9375C96 46.2756 93.855 44.125 91.2 44.125ZM76.8 53.75V5.67012C76.8 2.97813 74.625 0.8125 71.955 0.8125H24.06C21.375 0.8125 19.2 2.99316 19.2 5.67012V53.75H76.8ZM31.68 26.3789L35.505 22.574C36.135 21.9424 37.155 21.9424 37.785 22.5891L43.98 28.8453L58.26 14.6484C58.89 14.0168 59.91 14.0168 60.54 14.6635L64.335 18.4984C64.965 19.1301 64.965 20.1527 64.32 20.7844L45.075 39.9141C44.445 40.5457 43.425 40.5457 42.795 39.899L31.68 28.6648C31.035 28.0332 31.05 27.0105 31.68 26.3789Z" fill="#CC0000"/>
</svg>
