<svg width="22" height="24" viewBox="0 0 22 24" fill="none" xmlns="http://www.w3.org/2000/svg">
<path d="M11.75 15C11.336 15 11 14.328 11 13.5C11 12.672 11.336 12 11.75 12C12.164 12 12.5 12.672 12.5 13.5C12.5 14.328 12.164 15 11.75 15Z" fill="#636363"/>
<path d="M15.242 0.183033C15.3231 0.253538 15.3881 0.340654 15.4327 0.43848C15.4772 0.536306 15.5001 0.642556 15.5 0.750033V1.50003H16.25C16.8467 1.50003 17.419 1.73709 17.841 2.15904C18.2629 2.581 18.5 3.1533 18.5 3.75003V22.5H20.75C20.9489 22.5 21.1397 22.5791 21.2803 22.7197C21.421 22.8604 21.5 23.0511 21.5 23.25C21.5 23.4489 21.421 23.6397 21.2803 23.7804C21.1397 23.921 20.9489 24 20.75 24H1.25C1.05109 24 0.860322 23.921 0.71967 23.7804C0.579018 23.6397 0.5 23.4489 0.5 23.25C0.5 23.0511 0.579018 22.8604 0.71967 22.7197C0.860322 22.5791 1.05109 22.5 1.25 22.5H3.5V2.25003C3.50003 2.06933 3.56529 1.89471 3.6838 1.7583C3.8023 1.62188 3.96608 1.53283 4.145 1.50753L14.645 0.00753321C14.7513 -0.00764386 14.8596 0.000170158 14.9626 0.0304471C15.0656 0.0607241 15.1608 0.112758 15.242 0.183033ZM16.25 3.00003H15.5V22.5H17V3.75003C17 3.55112 16.921 3.36036 16.7803 3.2197C16.6397 3.07905 16.4489 3.00003 16.25 3.00003ZM5 2.90103V22.5H14V1.61553L5 2.90103Z" fill="#636363"/>
</svg>
