<svg width="70" height="68" viewBox="0 0 70 68" fill="none" xmlns="http://www.w3.org/2000/svg">
<path d="M17.2625 38.0382L29.926 50.7088L24.8628 55.7757L29.9332 60.8461L24.8664 65.9129L15.9976 57.0442L5.86035 67.1814L0.793518 62.1146L10.9308 51.9738L2.06202 43.1086L7.12885 38.0418L12.1957 43.105L17.2589 38.0382H17.2625ZM2.75002 0.75L15.4565 0.76075L57.8008 43.1086L62.8712 38.0418L67.938 43.1086L59.0728 51.9773L69.2065 62.1146L64.1397 67.1814L54.0024 57.0442L45.1337 65.9129L40.0668 60.8461L45.1337 55.7757L2.76077 13.4028L2.75002 0.75ZM54.5543 0.75L67.25 0.76075L67.2572 13.3848L52.7339 27.9045L40.0633 15.2374L54.5543 0.75Z" fill="#CC0000"/>
</svg>
